<!-- <svg height="100" width="300"> <defs> <style> .cls-1 { fill: #0078d4; } .cls-2 { fill: #ffffff; } .cls-3 { fill: #f0f0f0; } .cls-4 { fill: #d0d0d0; } </style> </defs> <rect class="cls-1" x="0" y="0" width="300" height="100" /> <text class="cls-2" x="120" y="65" font-family="Arial" font-size="40" font-weight="bold">FAM</text> <rect class="cls-3" x="10" y="10" width="80" height="40" /> <rect class="cls-4" x="15" y="15" width="70" height="30" /> <rect class="cls-3" x="20" y="20" width="60" height="20" /> <rect class="cls-4" x="25" y="25" width="50" height="10" /> <rect class="cls-3" x="30" y="30" width="40" height="5" /> <rect class="cls-4" x="35" y="35" width="30" height="2" /> </svg> -->

<!-- <svg height="100" width="300"> -->
<svg xmlns="http://www.w3.org/2000/svg" xmlns:xlink="http://www.w3.org/1999/xlink" aria-hidden="true" role="img" class="iconify iconify--logos" width="35.93" height="32" preserveAspectRatio="xMidYMid meet" viewBox="0 0 256 228"><defs> <style> .cls-1 { fill: #0078d4; } .cls-2 { fill: #ffffff; } .cls-3 { fill: #f0f0f0; } .cls-4 { fill: #d0d0d0; } .cls-5 { fill: #000000; } </style> </defs> <rect class="cls-1" x="0" y="0" width="300" height="100" /> <text class="cls-2" x="120" y="65" font-family="Arial" font-size="40" font-weight="bold">FAM</text> <circle class="cls-3" cx="50" cy="50" r="30" /> <circle class="cls-4" cx="50" cy="50" r="25" /> <circle class="cls-3" cx="50" cy="50" r="20" /> <circle class="cls-4" cx="50" cy="50" r="15" /> <circle class="cls-3" cx="50" cy="50" r="10" /> <circle class="cls-4" cx="50" cy="50" r="5" /> <line class="cls-5" x1="50" y1="50" x2="80" y2="10" stroke-width="2" /> <line class="cls-5" x1="50" y1="50" x2="80" y2="90" stroke-width="2" /> <line class="cls-5" x1="50" y1="50" x2="20" y2="10" stroke-width="2" /> <line class="cls-5" x1="50" y1="50" x2="20" y2="90" stroke-width="2" /> </svg>